<mxfile host="app.diagrams.net" agent="Mozilla/5.0 (Windows NT 10.0; Win64; x64) AppleWebKit/537.36 (KHTML, like Gecko) Chrome/140.0.0.0 Safari/537.36" version="28.0.7">
  <diagram name="Página-1" id="Gsc7s09Dom2q5boG_VFO">
    <mxGraphModel grid="1" page="1" gridSize="10" guides="1" tooltips="1" connect="1" arrows="1" fold="1" pageScale="1" pageWidth="827" pageHeight="1169" math="0" shadow="0">
      <root>
        <mxCell id="0" />
        <mxCell id="1" parent="0" />
        <mxCell id="JOTPCo1OwbbACZih8lHU-9" style="edgeStyle=orthogonalEdgeStyle;rounded=0;orthogonalLoop=1;jettySize=auto;html=1;endArrow=none;endFill=0;entryX=0.5;entryY=0;entryDx=0;entryDy=0;" edge="1" parent="1" source="JOTPCo1OwbbACZih8lHU-1" target="JOTPCo1OwbbACZih8lHU-2">
          <mxGeometry relative="1" as="geometry">
            <Array as="points">
              <mxPoint x="414" y="439" />
              <mxPoint x="60" y="439" />
            </Array>
          </mxGeometry>
        </mxCell>
        <mxCell id="JOTPCo1OwbbACZih8lHU-10" style="edgeStyle=orthogonalEdgeStyle;rounded=0;orthogonalLoop=1;jettySize=auto;html=1;endArrow=none;endFill=0;entryX=0.5;entryY=1;entryDx=0;entryDy=0;" edge="1" parent="1" source="JOTPCo1OwbbACZih8lHU-1" target="JOTPCo1OwbbACZih8lHU-3">
          <mxGeometry relative="1" as="geometry">
            <Array as="points">
              <mxPoint x="414" y="439" />
              <mxPoint x="200" y="439" />
            </Array>
          </mxGeometry>
        </mxCell>
        <mxCell id="JOTPCo1OwbbACZih8lHU-11" style="edgeStyle=orthogonalEdgeStyle;rounded=0;orthogonalLoop=1;jettySize=auto;html=1;strokeColor=default;endArrow=none;endFill=0;entryX=0.5;entryY=1;entryDx=0;entryDy=0;" edge="1" parent="1" source="JOTPCo1OwbbACZih8lHU-1" target="JOTPCo1OwbbACZih8lHU-4">
          <mxGeometry relative="1" as="geometry">
            <Array as="points">
              <mxPoint x="414" y="439" />
              <mxPoint x="340" y="439" />
            </Array>
          </mxGeometry>
        </mxCell>
        <mxCell id="JOTPCo1OwbbACZih8lHU-12" style="edgeStyle=orthogonalEdgeStyle;rounded=0;orthogonalLoop=1;jettySize=auto;html=1;endArrow=none;endFill=0;entryX=0.5;entryY=0;entryDx=0;entryDy=0;" edge="1" parent="1" source="JOTPCo1OwbbACZih8lHU-1" target="JOTPCo1OwbbACZih8lHU-8">
          <mxGeometry relative="1" as="geometry">
            <Array as="points">
              <mxPoint x="414" y="439" />
              <mxPoint x="760" y="439" />
            </Array>
          </mxGeometry>
        </mxCell>
        <mxCell id="JOTPCo1OwbbACZih8lHU-13" style="edgeStyle=orthogonalEdgeStyle;rounded=0;orthogonalLoop=1;jettySize=auto;html=1;endArrow=none;endFill=0;entryX=0.5;entryY=1;entryDx=0;entryDy=0;" edge="1" parent="1" source="JOTPCo1OwbbACZih8lHU-1" target="JOTPCo1OwbbACZih8lHU-7">
          <mxGeometry relative="1" as="geometry">
            <Array as="points">
              <mxPoint x="414" y="439" />
              <mxPoint x="620" y="439" />
            </Array>
          </mxGeometry>
        </mxCell>
        <mxCell id="JOTPCo1OwbbACZih8lHU-14" style="edgeStyle=orthogonalEdgeStyle;rounded=0;orthogonalLoop=1;jettySize=auto;html=1;startArrow=none;startFill=0;endArrow=none;endFill=0;entryX=0.5;entryY=1;entryDx=0;entryDy=0;" edge="1" parent="1" source="JOTPCo1OwbbACZih8lHU-1" target="JOTPCo1OwbbACZih8lHU-6">
          <mxGeometry relative="1" as="geometry">
            <Array as="points">
              <mxPoint x="414" y="439" />
              <mxPoint x="480" y="439" />
            </Array>
          </mxGeometry>
        </mxCell>
        <mxCell id="JOTPCo1OwbbACZih8lHU-15" style="edgeStyle=orthogonalEdgeStyle;rounded=0;orthogonalLoop=1;jettySize=auto;html=1;endArrow=none;endFill=0;entryX=1;entryY=0.5;entryDx=0;entryDy=0;" edge="1" parent="1" source="JOTPCo1OwbbACZih8lHU-1" target="JOTPCo1OwbbACZih8lHU-5">
          <mxGeometry relative="1" as="geometry">
            <Array as="points">
              <mxPoint x="414" y="370" />
              <mxPoint x="499" y="370" />
              <mxPoint x="499" y="389" />
              <mxPoint x="474" y="389" />
            </Array>
          </mxGeometry>
        </mxCell>
        <mxCell id="JOTPCo1OwbbACZih8lHU-1" value="Gerente General" style="rounded=0;whiteSpace=wrap;html=1;direction=west;" vertex="1" parent="1">
          <mxGeometry x="354" y="249" width="120" height="60" as="geometry" />
        </mxCell>
        <mxCell id="JOTPCo1OwbbACZih8lHU-2" value="&lt;font style=&quot;font-size: 11px;&quot;&gt;Gerente de Administración y Recursos Humanos&lt;/font&gt;" style="rounded=0;whiteSpace=wrap;html=1;direction=east;" vertex="1" parent="1">
          <mxGeometry y="479" width="120" height="60" as="geometry" />
        </mxCell>
        <mxCell id="JOTPCo1OwbbACZih8lHU-3" value="&lt;font style=&quot;font-size: 11px;&quot;&gt;Gerente de Desarrollo y Planeamiento Estratégico&lt;/font&gt;" style="rounded=0;whiteSpace=wrap;html=1;direction=west;" vertex="1" parent="1">
          <mxGeometry x="140" y="479" width="120" height="60" as="geometry" />
        </mxCell>
        <mxCell id="JOTPCo1OwbbACZih8lHU-4" value="&lt;font style=&quot;font-size: 11px;&quot;&gt;Gerente de Finanzas&lt;/font&gt;" style="rounded=0;whiteSpace=wrap;html=1;direction=west;" vertex="1" parent="1">
          <mxGeometry x="280" y="479" width="120" height="60" as="geometry" />
        </mxCell>
        <mxCell id="JOTPCo1OwbbACZih8lHU-5" value="Asesoría Legal" style="rounded=0;whiteSpace=wrap;html=1;direction=west;" vertex="1" parent="1">
          <mxGeometry x="474" y="340" width="120" height="60" as="geometry" />
        </mxCell>
        <mxCell id="JOTPCo1OwbbACZih8lHU-6" value="&lt;font style=&quot;font-size: 11px;&quot;&gt;Gerente Comercial&lt;/font&gt;" style="rounded=0;whiteSpace=wrap;html=1;direction=west;" vertex="1" parent="1">
          <mxGeometry x="420" y="479" width="120" height="60" as="geometry" />
        </mxCell>
        <mxCell id="JOTPCo1OwbbACZih8lHU-7" value="&lt;font style=&quot;font-size: 11px;&quot;&gt;Gerente de Distribución&lt;/font&gt;" style="rounded=0;whiteSpace=wrap;html=1;direction=west;" vertex="1" parent="1">
          <mxGeometry x="560" y="479" width="120" height="60" as="geometry" />
        </mxCell>
        <mxCell id="JOTPCo1OwbbACZih8lHU-8" value="&lt;font style=&quot;font-size: 11px;&quot;&gt;Gerente de Transmisión&lt;/font&gt;" style="rounded=0;whiteSpace=wrap;html=1;direction=east;" vertex="1" parent="1">
          <mxGeometry x="700" y="479" width="120" height="60" as="geometry" />
        </mxCell>
      </root>
    </mxGraphModel>
  </diagram>
</mxfile>
